<svg width="60" height="60" viewBox="0 0 60 60" fill="none" xmlns="http://www.w3.org/2000/svg">
<rect width="60" height="60" fill="#C6B281"/>
<path d="M32.0142 30.0002L38.1571 23.8717C38.4261 23.6027 38.5772 23.2378 38.5772 22.8574C38.5772 22.477 38.4261 22.1121 38.1571 21.8431C37.888 21.5741 37.5232 21.423 37.1428 21.423C36.7623 21.423 36.3975 21.5741 36.1285 21.8431L29.9999 27.986L23.8713 21.8431C23.6023 21.5741 23.2375 21.423 22.8571 21.423C22.4766 21.423 22.1118 21.5741 21.8428 21.8431C21.5738 22.1121 21.4226 22.477 21.4226 22.8574C21.4226 23.2378 21.5738 23.6027 21.8428 23.8717L27.9856 30.0002L21.8428 36.1288C21.7089 36.2616 21.6026 36.4196 21.5301 36.5937C21.4575 36.7678 21.4202 36.9545 21.4202 37.1431C21.4202 37.3317 21.4575 37.5184 21.5301 37.6925C21.6026 37.8666 21.7089 38.0246 21.8428 38.1574C21.9756 38.2913 22.1336 38.3976 22.3077 38.4701C22.4817 38.5426 22.6685 38.58 22.8571 38.58C23.0456 38.58 23.2324 38.5426 23.4065 38.4701C23.5805 38.3976 23.7385 38.2913 23.8713 38.1574L29.9999 32.0145L36.1285 38.1574C36.2613 38.2913 36.4193 38.3976 36.5934 38.4701C36.7675 38.5426 36.9542 38.58 37.1428 38.58C37.3314 38.58 37.5181 38.5426 37.6922 38.4701C37.8662 38.3976 38.0242 38.2913 38.1571 38.1574C38.291 38.0246 38.3972 37.8666 38.4698 37.6925C38.5423 37.5184 38.5796 37.3317 38.5796 37.1431C38.5796 36.9545 38.5423 36.7678 38.4698 36.5937C38.3972 36.4196 38.291 36.2616 38.1571 36.1288L32.0142 30.0002Z" fill="white"/>
</svg>
