<svg width="18" height="16" viewBox="0 0 18 16" fill="none" xmlns="http://www.w3.org/2000/svg">
<path d="M3.16667 0.5C2.39312 0.5 1.65125 0.81607 1.10427 1.37868C0.557291 1.94129 0.25 2.70435 0.25 3.5V3.8015L9 8.648L17.75 3.803V3.5C17.75 2.70435 17.4427 1.94129 16.8957 1.37868C16.3487 0.81607 15.6069 0.5 14.8333 0.5H3.16667ZM17.75 5.5055L9.34563 10.16C9.2394 10.2188 9.12064 10.2496 9 10.2496C8.87936 10.2496 8.7606 10.2188 8.65438 10.16L0.25 5.5055V12.5C0.25 13.2956 0.557291 14.0587 1.10427 14.6213C1.65125 15.1839 2.39312 15.5 3.16667 15.5H14.8333C15.6069 15.5 16.3487 15.1839 16.8957 14.6213C17.4427 14.0587 17.75 13.2956 17.75 12.5V5.5055Z" fill="white"/>
</svg>
