<svg width="18" height="18" viewBox="0 0 18 18" fill="none" xmlns="http://www.w3.org/2000/svg">
<path d="M17.7243 13.4771L16.9296 16.9222C16.8179 17.4092 16.3898 17.75 15.8883 17.75C7.26434 17.7493 0.25 10.736 0.25 2.1129C0.25 1.61185 0.59077 1.18326 1.07791 1.07218L4.52355 0.277544C5.02535 0.16127 5.5381 0.421706 5.74661 0.896848L7.3368 4.60516C7.52269 5.04195 7.39731 5.55086 7.02984 5.85094L5.18943 7.32846C6.35097 9.69426 8.27478 11.6178 10.6416 12.7798L12.1484 10.9411C12.4454 10.5726 12.9582 10.4451 13.395 10.6343L17.1039 12.2239C17.55 12.4586 17.8405 12.9781 17.7243 13.4771Z" fill="#B89F61"/>
</svg>
