<?xml version="1.0" encoding="utf-8"?><svg viewBox="0 0 32 32" xmlns="http://www.w3.org/2000/svg" xmlns:xlink="http://www.w3.org/1999/xlink"><style>:root>svg{display:none}:root>svg:target{display:block}</style><svg viewBox="0 0 32 32" id="next" xmlns="http://www.w3.org/2000/svg"><path fill-rule="evenodd" clip-rule="evenodd" d="M13.683 11.808a.625.625 0 01.884 0l3.75 3.75a.625.625 0 010 .884l-3.75 3.75a.625.625 0 11-.884-.884L16.991 16l-3.308-3.308a.625.625 0 010-.884z"/></svg><svg viewBox="0 0 32 32" id="prev" xmlns="http://www.w3.org/2000/svg"><path fill-rule="evenodd" clip-rule="evenodd" d="M18.317 11.808a.625.625 0 00-.884 0l-3.75 3.75a.625.625 0 000 .884l3.75 3.75a.625.625 0 10.884-.884L15.009 16l3.308-3.308a.625.625 0 000-.884z"/></svg></svg>